<mxfile host="app.diagrams.net" modified="2023-04-08T00:50:01.884Z" agent="Mozilla/5.0 (Macintosh; Intel Mac OS X 10_15_7) AppleWebKit/537.36 (KHTML, like Gecko) Chrome/110.0.0.0 Safari/537.36" etag="IUfOazw6rj4rJwyu6twV" version="21.1.4" type="device">
  <diagram name="Page-1" id="N1yvioOG720YIT_IY8ei">
    <mxGraphModel dx="1434" dy="768" grid="1" gridSize="10" guides="1" tooltips="1" connect="1" arrows="1" fold="1" page="1" pageScale="1" pageWidth="850" pageHeight="1100" math="0" shadow="0">
      <root>
        <mxCell id="0" />
        <mxCell id="1" parent="0" />
        <mxCell id="Pslh7f__V98KznwxpMLR-1" value="Foundational Concepts" style="text;html=1;align=center;verticalAlign=middle;resizable=0;points=[];autosize=1;strokeColor=none;fillColor=none;" vertex="1" parent="1">
          <mxGeometry x="40" y="10" width="150" height="30" as="geometry" />
        </mxCell>
        <mxCell id="Pslh7f__V98KznwxpMLR-3" value="" style="rounded=0;whiteSpace=wrap;html=1;" vertex="1" parent="1">
          <mxGeometry x="40" y="80" width="760" height="960" as="geometry" />
        </mxCell>
        <mxCell id="Pslh7f__V98KznwxpMLR-4" value="Session" style="rounded=0;whiteSpace=wrap;html=1;" vertex="1" parent="1">
          <mxGeometry x="40" y="80" width="120" height="60" as="geometry" />
        </mxCell>
        <mxCell id="Pslh7f__V98KznwxpMLR-6" value="" style="rounded=0;whiteSpace=wrap;html=1;" vertex="1" parent="1">
          <mxGeometry x="160" y="140" width="580" height="860" as="geometry" />
        </mxCell>
        <mxCell id="Pslh7f__V98KznwxpMLR-7" value="Flow" style="rounded=0;whiteSpace=wrap;html=1;" vertex="1" parent="1">
          <mxGeometry x="160" y="140" width="120" height="60" as="geometry" />
        </mxCell>
        <mxCell id="Pslh7f__V98KznwxpMLR-21" style="edgeStyle=orthogonalEdgeStyle;rounded=0;orthogonalLoop=1;jettySize=auto;html=1;exitX=0.55;exitY=0.95;exitDx=0;exitDy=0;exitPerimeter=0;entryX=0.4;entryY=0.1;entryDx=0;entryDy=0;entryPerimeter=0;" edge="1" parent="1" source="Pslh7f__V98KznwxpMLR-8" target="Pslh7f__V98KznwxpMLR-16">
          <mxGeometry relative="1" as="geometry" />
        </mxCell>
        <mxCell id="Pslh7f__V98KznwxpMLR-40" value="Sequential Connection" style="edgeLabel;html=1;align=center;verticalAlign=middle;resizable=0;points=[];" vertex="1" connectable="0" parent="Pslh7f__V98KznwxpMLR-21">
          <mxGeometry x="-0.0571" y="1" relative="1" as="geometry">
            <mxPoint as="offset" />
          </mxGeometry>
        </mxCell>
        <mxCell id="Pslh7f__V98KznwxpMLR-8" value="Agent" style="ellipse;shape=cloud;whiteSpace=wrap;html=1;" vertex="1" parent="1">
          <mxGeometry x="210" y="410" width="120" height="80" as="geometry" />
        </mxCell>
        <mxCell id="Pslh7f__V98KznwxpMLR-19" style="edgeStyle=orthogonalEdgeStyle;rounded=0;orthogonalLoop=1;jettySize=auto;html=1;exitX=0.55;exitY=0.95;exitDx=0;exitDy=0;exitPerimeter=0;entryX=0.4;entryY=0.1;entryDx=0;entryDy=0;entryPerimeter=0;" edge="1" parent="1" source="Pslh7f__V98KznwxpMLR-9" target="Pslh7f__V98KznwxpMLR-17">
          <mxGeometry relative="1" as="geometry">
            <Array as="points">
              <mxPoint x="686" y="520" />
              <mxPoint x="598" y="520" />
            </Array>
          </mxGeometry>
        </mxCell>
        <mxCell id="Pslh7f__V98KznwxpMLR-9" value="Agent" style="ellipse;shape=cloud;whiteSpace=wrap;html=1;" vertex="1" parent="1">
          <mxGeometry x="620" y="410" width="120" height="80" as="geometry" />
        </mxCell>
        <mxCell id="Pslh7f__V98KznwxpMLR-18" style="edgeStyle=orthogonalEdgeStyle;rounded=0;orthogonalLoop=1;jettySize=auto;html=1;exitX=0.55;exitY=0.95;exitDx=0;exitDy=0;exitPerimeter=0;entryX=0.4;entryY=0.1;entryDx=0;entryDy=0;entryPerimeter=0;" edge="1" parent="1" source="Pslh7f__V98KznwxpMLR-10" target="Pslh7f__V98KznwxpMLR-17">
          <mxGeometry relative="1" as="geometry">
            <Array as="points">
              <mxPoint x="526" y="520" />
              <mxPoint x="598" y="520" />
            </Array>
          </mxGeometry>
        </mxCell>
        <mxCell id="Pslh7f__V98KznwxpMLR-39" value="Parallel Connection" style="edgeLabel;html=1;align=center;verticalAlign=middle;resizable=0;points=[];" vertex="1" connectable="0" parent="Pslh7f__V98KznwxpMLR-18">
          <mxGeometry x="0.5784" y="1" relative="1" as="geometry">
            <mxPoint as="offset" />
          </mxGeometry>
        </mxCell>
        <mxCell id="Pslh7f__V98KznwxpMLR-10" value="Agent" style="ellipse;shape=cloud;whiteSpace=wrap;html=1;" vertex="1" parent="1">
          <mxGeometry x="460" y="410" width="120" height="80" as="geometry" />
        </mxCell>
        <mxCell id="Pslh7f__V98KznwxpMLR-13" style="edgeStyle=orthogonalEdgeStyle;rounded=0;orthogonalLoop=1;jettySize=auto;html=1;exitX=0.5;exitY=1;exitDx=0;exitDy=0;entryX=0.4;entryY=0.1;entryDx=0;entryDy=0;entryPerimeter=0;" edge="1" parent="1" source="Pslh7f__V98KznwxpMLR-35" target="Pslh7f__V98KznwxpMLR-8">
          <mxGeometry relative="1" as="geometry" />
        </mxCell>
        <mxCell id="Pslh7f__V98KznwxpMLR-14" style="edgeStyle=orthogonalEdgeStyle;rounded=0;orthogonalLoop=1;jettySize=auto;html=1;exitX=0.5;exitY=1;exitDx=0;exitDy=0;entryX=0.4;entryY=0.1;entryDx=0;entryDy=0;entryPerimeter=0;" edge="1" parent="1" source="Pslh7f__V98KznwxpMLR-34" target="Pslh7f__V98KznwxpMLR-10">
          <mxGeometry relative="1" as="geometry" />
        </mxCell>
        <mxCell id="Pslh7f__V98KznwxpMLR-15" style="edgeStyle=orthogonalEdgeStyle;rounded=0;orthogonalLoop=1;jettySize=auto;html=1;exitX=0.5;exitY=1;exitDx=0;exitDy=0;entryX=0.4;entryY=0.1;entryDx=0;entryDy=0;entryPerimeter=0;" edge="1" parent="1" source="Pslh7f__V98KznwxpMLR-33" target="Pslh7f__V98KznwxpMLR-9">
          <mxGeometry relative="1" as="geometry" />
        </mxCell>
        <mxCell id="Pslh7f__V98KznwxpMLR-11" value="Input&lt;br&gt;- Text, Audio, Image, Video" style="rounded=1;whiteSpace=wrap;html=1;" vertex="1" parent="1">
          <mxGeometry x="360" y="200" width="120" height="60" as="geometry" />
        </mxCell>
        <mxCell id="Pslh7f__V98KznwxpMLR-12" style="edgeStyle=orthogonalEdgeStyle;rounded=0;orthogonalLoop=1;jettySize=auto;html=1;exitX=0.5;exitY=1;exitDx=0;exitDy=0;" edge="1" parent="1" source="Pslh7f__V98KznwxpMLR-11" target="Pslh7f__V98KznwxpMLR-11">
          <mxGeometry relative="1" as="geometry" />
        </mxCell>
        <mxCell id="Pslh7f__V98KznwxpMLR-24" style="edgeStyle=orthogonalEdgeStyle;rounded=0;orthogonalLoop=1;jettySize=auto;html=1;exitX=0.55;exitY=0.95;exitDx=0;exitDy=0;exitPerimeter=0;entryX=0.5;entryY=0;entryDx=0;entryDy=0;" edge="1" parent="1" source="Pslh7f__V98KznwxpMLR-16" target="Pslh7f__V98KznwxpMLR-23">
          <mxGeometry relative="1" as="geometry">
            <Array as="points">
              <mxPoint x="286" y="760" />
              <mxPoint x="450" y="760" />
            </Array>
          </mxGeometry>
        </mxCell>
        <mxCell id="Pslh7f__V98KznwxpMLR-16" value="Agent" style="ellipse;shape=cloud;whiteSpace=wrap;html=1;" vertex="1" parent="1">
          <mxGeometry x="220" y="610" width="120" height="80" as="geometry" />
        </mxCell>
        <mxCell id="Pslh7f__V98KznwxpMLR-30" style="edgeStyle=orthogonalEdgeStyle;rounded=0;orthogonalLoop=1;jettySize=auto;html=1;exitX=0.55;exitY=0.95;exitDx=0;exitDy=0;exitPerimeter=0;entryX=0.5;entryY=0;entryDx=0;entryDy=0;" edge="1" parent="1" source="Pslh7f__V98KznwxpMLR-17" target="Pslh7f__V98KznwxpMLR-23">
          <mxGeometry relative="1" as="geometry">
            <Array as="points">
              <mxPoint x="616" y="760" />
              <mxPoint x="449" y="760" />
            </Array>
          </mxGeometry>
        </mxCell>
        <mxCell id="Pslh7f__V98KznwxpMLR-17" value="Agent" style="ellipse;shape=cloud;whiteSpace=wrap;html=1;" vertex="1" parent="1">
          <mxGeometry x="550" y="610" width="120" height="80" as="geometry" />
        </mxCell>
        <mxCell id="Pslh7f__V98KznwxpMLR-27" style="edgeStyle=orthogonalEdgeStyle;rounded=0;orthogonalLoop=1;jettySize=auto;html=1;exitX=0.5;exitY=1;exitDx=0;exitDy=0;entryX=0.5;entryY=0;entryDx=0;entryDy=0;entryPerimeter=0;" edge="1" parent="1" source="Pslh7f__V98KznwxpMLR-23" target="Pslh7f__V98KznwxpMLR-26">
          <mxGeometry relative="1" as="geometry" />
        </mxCell>
        <mxCell id="Pslh7f__V98KznwxpMLR-23" value="Output:&lt;br&gt;- Text, Audio, Image, Video" style="rounded=1;whiteSpace=wrap;html=1;" vertex="1" parent="1">
          <mxGeometry x="390" y="870" width="120" height="60" as="geometry" />
        </mxCell>
        <mxCell id="Pslh7f__V98KznwxpMLR-26" value="Client" style="verticalLabelPosition=bottom;html=1;verticalAlign=top;align=center;strokeColor=none;fillColor=#00BEF2;shape=mxgraph.azure.computer;pointerEvents=1;" vertex="1" parent="1">
          <mxGeometry x="423.75" y="1000" width="50" height="40" as="geometry" />
        </mxCell>
        <mxCell id="Pslh7f__V98KznwxpMLR-29" style="edgeStyle=orthogonalEdgeStyle;rounded=0;orthogonalLoop=1;jettySize=auto;html=1;exitX=0.5;exitY=1;exitDx=0;exitDy=0;exitPerimeter=0;entryX=0.5;entryY=0;entryDx=0;entryDy=0;" edge="1" parent="1" source="Pslh7f__V98KznwxpMLR-28" target="Pslh7f__V98KznwxpMLR-11">
          <mxGeometry relative="1" as="geometry" />
        </mxCell>
        <mxCell id="Pslh7f__V98KznwxpMLR-28" value="Client" style="verticalLabelPosition=bottom;html=1;verticalAlign=top;align=center;strokeColor=none;fillColor=#00BEF2;shape=mxgraph.azure.computer;pointerEvents=1;" vertex="1" parent="1">
          <mxGeometry x="395" y="80" width="50" height="45" as="geometry" />
        </mxCell>
        <mxCell id="Pslh7f__V98KznwxpMLR-42" style="edgeStyle=orthogonalEdgeStyle;rounded=0;orthogonalLoop=1;jettySize=auto;html=1;exitX=0.5;exitY=0;exitDx=0;exitDy=0;entryX=0;entryY=0.25;entryDx=0;entryDy=0;" edge="1" parent="1" source="Pslh7f__V98KznwxpMLR-31" target="Pslh7f__V98KznwxpMLR-6">
          <mxGeometry relative="1" as="geometry">
            <Array as="points">
              <mxPoint x="100" y="355" />
            </Array>
          </mxGeometry>
        </mxCell>
        <mxCell id="Pslh7f__V98KznwxpMLR-43" value="Track Flow History" style="edgeLabel;html=1;align=center;verticalAlign=middle;resizable=0;points=[];" vertex="1" connectable="0" parent="Pslh7f__V98KznwxpMLR-42">
          <mxGeometry x="-0.3818" relative="1" as="geometry">
            <mxPoint as="offset" />
          </mxGeometry>
        </mxCell>
        <mxCell id="Pslh7f__V98KznwxpMLR-31" value="History" style="shape=image;html=1;verticalAlign=top;verticalLabelPosition=bottom;labelBackgroundColor=#ffffff;imageAspect=0;aspect=fixed;image=https://cdn1.iconfinder.com/data/icons/unicons-line-vol-4/24/history-128.png" vertex="1" parent="1">
          <mxGeometry x="65" y="460" width="70" height="70" as="geometry" />
        </mxCell>
        <mxCell id="Pslh7f__V98KznwxpMLR-32" value="&lt;h1&gt;Core Concepts:&lt;/h1&gt;&lt;div&gt;Session: A session encapsulates a flow that executes over time. This contains a history of data in and data out. For example, a ChatHistory agent will tell the session to store chat history, and reference it when data flows through.&lt;/div&gt;&lt;div&gt;&lt;br&gt;&lt;/div&gt;&lt;div&gt;Flow: A flow is a graph of connected agents. It is the graph itself. It validates graphs, builds them, and executes them. A user can save different agents in a &quot;Flow&quot; to easily create a repeatable pipeline of ML agents.The flow is &quot;one-shot&quot;. It doesn&#39;t track history. History is only tracked within a session.&lt;/div&gt;&lt;div&gt;&lt;br&gt;&lt;/div&gt;&lt;div&gt;Agent: The connections of agents, and the abilities of agents itself make the concept powerful. They take in data, perform some process on that data, and send the output along in the flow. Within the context of a Flow, an agent receive&#39;s data from a node(s), and sends its data to other node(s).&lt;/div&gt;&lt;div&gt;&lt;br&gt;&lt;/div&gt;&lt;div&gt;Template: Templates can be used to allow the user to control how the agent receives data. They contain data that surrounds the user&#39;s input. When input comes in, it can be embedded inside of the template to allow different agents to receive different instructions.&lt;/div&gt;&lt;div&gt;&lt;br&gt;&lt;/div&gt;&lt;div&gt;Input Nodes: Input nodes take data from the client and send it directly into the flow. The only &quot;manipulation&quot; of the input performed should be what is needed in the backend in order to make operable with attached agents. This could be for example, downsizing an image input to decreased resolution for an agent. Input nodes can take it text, audio, video, or images. For audio, and video, they should also be able to stream data real time.&lt;/div&gt;&lt;div&gt;&lt;br&gt;&lt;/div&gt;&lt;div&gt;Output Nodes: Output nodes are the final step in the flow. The output node contains the final output after combining all of the agents in the flow. The output node can send audio, video, text, and images to the user. Outputs can be a composite of data types. Similar to Input Nodes, they can also stream real time.&lt;/div&gt;" style="text;html=1;strokeColor=none;fillColor=none;spacing=5;spacingTop=-20;whiteSpace=wrap;overflow=hidden;rounded=0;" vertex="1" parent="1">
          <mxGeometry x="880" y="80" width="190" height="1000" as="geometry" />
        </mxCell>
        <mxCell id="Pslh7f__V98KznwxpMLR-36" value="" style="edgeStyle=orthogonalEdgeStyle;rounded=0;orthogonalLoop=1;jettySize=auto;html=1;exitX=0.5;exitY=1;exitDx=0;exitDy=0;entryX=0.4;entryY=0.1;entryDx=0;entryDy=0;entryPerimeter=0;" edge="1" parent="1" source="Pslh7f__V98KznwxpMLR-11" target="Pslh7f__V98KznwxpMLR-35">
          <mxGeometry relative="1" as="geometry">
            <mxPoint x="420" y="260" as="sourcePoint" />
            <mxPoint x="258" y="418" as="targetPoint" />
            <Array as="points">
              <mxPoint x="420" y="310" />
              <mxPoint x="260" y="310" />
            </Array>
          </mxGeometry>
        </mxCell>
        <mxCell id="Pslh7f__V98KznwxpMLR-35" value="Template" style="sketch=0;outlineConnect=0;fontColor=#232F3E;gradientColor=none;fillColor=#B0084D;strokeColor=none;dashed=0;verticalLabelPosition=bottom;verticalAlign=top;align=center;html=1;fontSize=12;fontStyle=0;aspect=fixed;pointerEvents=1;shape=mxgraph.aws4.template;" vertex="1" parent="1">
          <mxGeometry x="250" y="350" width="25" height="30" as="geometry" />
        </mxCell>
        <mxCell id="Pslh7f__V98KznwxpMLR-37" value="" style="edgeStyle=orthogonalEdgeStyle;rounded=0;orthogonalLoop=1;jettySize=auto;html=1;exitX=0.5;exitY=1;exitDx=0;exitDy=0;entryX=0.4;entryY=0.1;entryDx=0;entryDy=0;entryPerimeter=0;" edge="1" parent="1" source="Pslh7f__V98KznwxpMLR-11" target="Pslh7f__V98KznwxpMLR-34">
          <mxGeometry relative="1" as="geometry">
            <mxPoint x="420" y="260" as="sourcePoint" />
            <mxPoint x="508" y="418" as="targetPoint" />
          </mxGeometry>
        </mxCell>
        <mxCell id="Pslh7f__V98KznwxpMLR-34" value="Template" style="sketch=0;outlineConnect=0;fontColor=#232F3E;gradientColor=none;fillColor=#B0084D;strokeColor=none;dashed=0;verticalLabelPosition=bottom;verticalAlign=top;align=center;html=1;fontSize=12;fontStyle=0;aspect=fixed;pointerEvents=1;shape=mxgraph.aws4.template;" vertex="1" parent="1">
          <mxGeometry x="500" y="360" width="25" height="30" as="geometry" />
        </mxCell>
        <mxCell id="Pslh7f__V98KznwxpMLR-38" value="" style="edgeStyle=orthogonalEdgeStyle;rounded=0;orthogonalLoop=1;jettySize=auto;html=1;exitX=0.5;exitY=1;exitDx=0;exitDy=0;entryX=0.4;entryY=0.1;entryDx=0;entryDy=0;entryPerimeter=0;" edge="1" parent="1" source="Pslh7f__V98KznwxpMLR-11" target="Pslh7f__V98KznwxpMLR-33">
          <mxGeometry relative="1" as="geometry">
            <mxPoint x="420" y="260" as="sourcePoint" />
            <mxPoint x="668" y="418" as="targetPoint" />
          </mxGeometry>
        </mxCell>
        <mxCell id="Pslh7f__V98KznwxpMLR-33" value="Template" style="sketch=0;outlineConnect=0;fontColor=#232F3E;gradientColor=none;fillColor=#B0084D;strokeColor=none;dashed=0;verticalLabelPosition=bottom;verticalAlign=top;align=center;html=1;fontSize=12;fontStyle=0;aspect=fixed;pointerEvents=1;shape=mxgraph.aws4.template;" vertex="1" parent="1">
          <mxGeometry x="660" y="360" width="25" height="30" as="geometry" />
        </mxCell>
      </root>
    </mxGraphModel>
  </diagram>
</mxfile>
